<svg width="143" height="222" viewBox="0 0 143 222" fill="none" xmlns="http://www.w3.org/2000/svg">
<path d="M86.0196 15.1703C86.0196 22.8066 79.806 29.0032 72.1337 29.0032C64.4614 29.0032 58.2478 22.8066 58.2478 15.1703C58.2478 7.53391 64.4614 1.33734 72.1337 1.33734C79.806 1.33734 86.0196 7.53391 86.0196 15.1703Z" fill="white" stroke="black" stroke-width="2"/>
<rect x="59.7595" y="26.687" width="24.3452" height="1.72413" rx="0.862067" fill="white" stroke="black" stroke-width="1.72413"/>
<path d="M34.3265 174.461V170.459C43.8387 159.541 49.5977 145.285 49.5977 129.69C49.5977 116.96 45.7598 105.121 39.1743 95.2615H104.69C98.1044 105.121 94.2664 116.96 94.2664 129.69C94.2664 145.285 100.025 159.541 109.538 170.459V174.461H34.3265Z" fill="white" stroke="black" stroke-width="2"/>
<path fill-rule="evenodd" clip-rule="evenodd" d="M71.9321 27.549H64.5245L33.547 71.9266C30.8379 76.5431 29.0462 87.4733 43.5516 94.2616H71.9321H100.313C114.818 87.4733 113.026 76.5431 110.317 71.9266L79.3398 27.549H71.9321Z" fill="white"/>
<path d="M64.5245 27.549V26.549H64.003L63.7045 26.9766L64.5245 27.549ZM33.547 71.9266L32.727 71.3542L32.7044 71.3865L32.6845 71.4205L33.547 71.9266ZM43.5516 94.2616L43.1278 95.1673L43.3292 95.2616H43.5516V94.2616ZM100.313 94.2616V95.2616H100.535L100.736 95.1673L100.313 94.2616ZM110.317 71.9266L111.18 71.4205L111.16 71.3865L111.137 71.3542L110.317 71.9266ZM79.3398 27.549L80.1598 26.9766L79.8613 26.549H79.3398V27.549ZM64.5245 28.549H71.9321V26.549H64.5245V28.549ZM34.367 72.499L65.3444 28.1214L63.7045 26.9766L32.727 71.3542L34.367 72.499ZM43.9755 93.3559C36.9396 90.0632 34.0052 85.849 33.0647 82.04C32.1121 78.1816 33.1605 74.5611 34.4094 72.4327L32.6845 71.4205C31.2244 73.9086 30.0224 78.0614 31.123 82.5194C32.2358 87.0266 35.6583 91.6718 43.1278 95.1673L43.9755 93.3559ZM71.9321 93.2616H43.5516V95.2616H71.9321V93.2616ZM71.9321 95.2616H100.313V93.2616H71.9321V95.2616ZM100.736 95.1673C108.206 91.6717 111.628 87.0266 112.741 82.5194C113.842 78.0614 112.64 73.9086 111.18 71.4205L109.455 72.4327C110.704 74.5611 111.752 78.1816 110.8 82.04C109.859 85.849 106.925 90.0632 99.8888 93.3559L100.736 95.1673ZM111.137 71.3542L80.1598 26.9766L78.5198 28.1214L109.497 72.499L111.137 71.3542ZM79.3398 26.549H71.9321V28.549H79.3398V26.549Z" fill="black"/>
<rect x="30.6678" y="95.2615" width="82.5286" height="9.18089" rx="4.59044" fill="white" stroke="black" stroke-width="2"/>
<rect x="23.2595" y="176.461" width="97.3452" height="12.9063" fill="white" stroke="black" stroke-width="2"/>
<rect x="10.2281" y="191.368" width="123.408" height="13.6511" fill="white" stroke="black" stroke-width="2"/>
<rect x="1.92102" y="207.019" width="140.022" height="13.6511" fill="white" stroke="black" stroke-width="2"/>
</svg>
