<svg width="280" height="280" viewBox="0 0 280 280" fill="none" xmlns="http://www.w3.org/2000/svg">
<rect x="85.6345" y="92.6213" width="108.393" height="9.22081" rx="4.61041" fill="#333333" stroke="black" stroke-width="2"/>
<rect x="91.1581" y="174.111" width="97.3452" height="12.9595" fill="#333333" stroke="black" stroke-width="2"/>
<rect x="78.1268" y="189.071" width="123.408" height="13.707" fill="#333333" stroke="black" stroke-width="2"/>
<rect x="69.8197" y="204.778" width="140.022" height="13.707" fill="#333333" stroke="black" stroke-width="2"/>
<path d="M100.378 102.842C101.642 103.373 104.171 104.834 104.171 106.428C104.171 108.021 98.1015 153.038 95.0667 175.347C94.5609 176.808 93.094 179.849 91.2731 180.327C89.4522 180.805 122.886 180.526 139.831 180.327C156.775 180.526 190.209 180.805 188.389 180.327C186.568 179.849 185.101 176.808 184.595 175.347C181.56 153.038 175.49 108.021 175.49 106.428C175.49 104.834 178.019 103.373 179.284 102.842H139.831H100.378Z" fill="#333333" stroke="black" stroke-width="2"/>
<path d="M193.938 58.0413L191.408 93.116L177.198 91.985H89.0266L84.0143 58.2656H109.532L110.899 83.8589H127.455V58.2656H151.757V83.8589H177.198L176.962 58.3144L193.938 58.0413Z" fill="#3D3D3D" stroke="black" stroke-width="2"/>
<path d="M188.862 78.2708L190.073 58.3132H193.758L192.441 78.2708H192.467L192.091 83.5718L191.915 86.2434H191.902L191.409 93.2054H88.2171L83.8551 58.3981H103.126L104.691 78.2708H116.013L114.327 58.3981H140.823V78.2708H157.083V58.3981H180.81V78.2708H188.862Z" fill="#333333" stroke="black" stroke-width="2"/>
</svg>
