<svg width="281" height="280" viewBox="0 0 281 280" fill="none" xmlns="http://www.w3.org/2000/svg">
<path d="M190.259 89.7523C190.259 98.1989 184.856 108.881 175.921 117.493C167.012 126.079 154.749 132.451 141.259 132.451C127.77 132.451 115.507 126.079 106.598 117.493C97.663 108.881 92.2594 98.1989 92.2594 89.7523C92.2594 81.3967 97.5662 73.6905 106.442 68.024C115.307 62.3649 127.614 58.8319 141.259 58.8319C154.905 58.8319 167.212 62.3649 176.077 68.024C184.953 73.6905 190.259 81.3967 190.259 89.7523Z" fill="#333333" stroke="black" stroke-width="2"/>
<path d="M137.44 42.9327H138.44V41.9327V29.9065H143.424V41.9327V42.9327H144.424H156.45V47.9159H144.424H143.424V48.9159V60.9423H138.44V48.9159V47.9159H137.44H125.414V42.9327H137.44Z" fill="#333333" stroke="black" stroke-width="2"/>
<rect x="99.6678" y="118.134" width="82.5286" height="3.36703" rx="1.68352" fill="#333333" stroke="black" stroke-width="2"/>
<path d="M103.326 202.72V198.697C112.839 187.741 118.598 173.434 118.598 157.786C118.598 145.008 114.758 133.125 108.171 123.23H173.694C167.106 133.125 163.266 145.008 163.266 157.786C163.266 173.434 169.025 187.741 178.538 198.697V202.72H103.326Z" fill="#333333" stroke="black" stroke-width="2"/>
<rect x="99.6678" y="123.23" width="82.5286" height="9.22081" rx="4.61041" fill="#333333" stroke="black" stroke-width="2"/>
<rect x="92.2594" y="204.72" width="97.3452" height="12.9595" fill="#333333" stroke="black" stroke-width="2"/>
<rect x="79.2281" y="219.68" width="123.408" height="13.707" fill="#333333" stroke="black" stroke-width="2"/>
<rect x="70.921" y="235.386" width="140.022" height="13.707" fill="#333333" stroke="black" stroke-width="2"/>
<circle cx="141.221" cy="45.2923" r="6.73348" fill="#333333" stroke="black" stroke-width="2"/>
</svg>
