<svg width="280" height="280" viewBox="0 0 280 280" fill="none" xmlns="http://www.w3.org/2000/svg">
<path d="M168.748 81.6788C168.748 95.7127 155.985 107.275 140 107.275C124.015 107.275 111.252 95.7127 111.252 81.6788C111.252 67.645 124.015 56.083 140 56.083C155.985 56.083 168.748 67.645 168.748 81.6788Z" fill="#333333" stroke="black" stroke-width="2"/>
<path d="M102.394 177.544V173.521C111.907 162.564 117.666 148.258 117.666 132.609C117.666 119.832 113.826 107.949 107.239 98.0538H172.761C166.174 107.949 162.334 119.832 162.334 132.609C162.334 148.258 168.093 162.564 177.606 173.521V177.544H102.394Z" fill="#333333" stroke="black" stroke-width="2"/>
<rect x="98.7357" y="98.0538" width="82.5286" height="9.22081" rx="4.61041" fill="#333333" stroke="black" stroke-width="2"/>
<rect x="91.3273" y="179.544" width="97.3452" height="12.9595" fill="#333333" stroke="black" stroke-width="2"/>
<rect x="78.296" y="194.503" width="123.408" height="13.707" fill="#333333" stroke="black" stroke-width="2"/>
<rect x="69.9889" y="210.21" width="140.022" height="13.707" fill="#333333" stroke="black" stroke-width="2"/>
</svg>
