<svg width="280" height="280" viewBox="0 0 280 280" fill="none" xmlns="http://www.w3.org/2000/svg">
<path d="M127.355 36.0533C120.593 36.0533 122.139 49.8424 123.758 56.7369C121.931 61.9398 115.867 64.2418 112.343 66.9115C108.819 69.5813 111.916 73.5325 105.615 76.6293C99.3147 79.7262 92.587 85.386 80.5198 94.9971C68.4527 104.608 61.191 108.025 53.5022 108.986C47.3512 109.755 47.6644 114.433 48.5899 116.675L66.9576 137.179H75.1804C75.7143 134.189 79.3452 128.636 87.6747 127.461C96.0042 126.286 115.013 130.665 126.653 124.684C135.965 119.9 142.137 110.232 144.059 105.996L141.018 114.884C133.33 136.027 100.775 146.918 85.4586 149.721C79.9327 161.134 94.2572 184.256 102.11 194.391V197.98H183.291V194.687C194.658 183.32 201.129 159.127 202.944 148.452C203.355 159.004 196.005 180.296 192.278 189.623L217.631 198.097C232.719 175.062 239.479 136.421 219.553 97.5771C203.57 66.4192 171.1 56.6698 156.863 55.6898L156.132 59.7944C144.909 40.3699 132.271 35.8735 127.355 36.0533Z" fill="#333333" stroke="black" stroke-width="2"/>
<rect x="92.5272" y="198.578" width="97.3452" height="12.9595" fill="#333333" stroke="black" stroke-width="2"/>
<rect x="79.4959" y="213.538" width="123.408" height="13.707" fill="#333333" stroke="black" stroke-width="2"/>
<rect x="71.1888" y="229.245" width="140.022" height="13.707" fill="#333333" stroke="black" stroke-width="2"/>
</svg>
