<svg width="280" height="280" viewBox="0 0 280 280" fill="none" xmlns="http://www.w3.org/2000/svg">
<circle cx="140.032" cy="43.0874" r="13.8859" fill="#333333" stroke="black" stroke-width="2"/>
<rect x="127.661" y="54.6453" width="24.339" height="1.73029" rx="0.865147" fill="#333333" stroke="black" stroke-width="1.73029"/>
<path d="M102.225 202.951V198.928C111.738 187.972 117.496 173.665 117.496 158.016C117.496 145.239 113.657 133.356 107.069 123.461H172.592C166.004 133.356 162.165 145.239 162.165 158.016C162.165 173.665 167.924 187.972 177.436 198.928V202.951H102.225Z" fill="#333333" stroke="black" stroke-width="2"/>
<path fill-rule="evenodd" clip-rule="evenodd" d="M139.831 55.5104H132.423L101.446 100.046C98.7366 104.679 96.9448 115.649 111.45 122.461H139.831H168.211C182.717 115.649 180.925 104.679 178.216 100.046L147.238 55.5104H139.831Z" fill="#333333"/>
<path d="M132.423 55.5104V54.5104H131.901L131.602 54.9394L132.423 55.5104ZM101.446 100.046L100.625 99.4754L100.602 99.5077L100.582 99.5417L101.446 100.046ZM111.45 122.461L111.025 123.366L111.227 123.461H111.45V122.461ZM168.211 122.461V123.461H168.434L168.636 123.366L168.211 122.461ZM178.216 100.046L179.079 99.5417L179.059 99.5077L179.037 99.4754L178.216 100.046ZM147.238 55.5104L148.059 54.9394L147.761 54.5104H147.238V55.5104ZM132.423 56.5104H139.831V54.5104H132.423V56.5104ZM102.267 100.617L133.244 56.0814L131.602 54.9394L100.625 99.4754L102.267 100.617ZM111.875 121.556C104.84 118.252 101.905 114.023 100.964 110.198C100.01 106.323 101.059 102.688 102.309 100.551L100.582 99.5417C99.1227 102.038 97.9214 106.204 99.0215 110.675C100.134 115.197 103.555 119.858 111.025 123.366L111.875 121.556ZM139.831 121.461H111.45V123.461H139.831V121.461ZM139.831 123.461H168.211V121.461H139.831V123.461ZM168.636 123.366C176.107 119.858 179.528 115.197 180.64 110.675C181.74 106.204 180.539 102.038 179.079 99.5417L177.353 100.551C178.602 102.688 179.651 106.323 178.698 110.198C177.757 114.023 174.821 118.252 167.786 121.556L168.636 123.366ZM179.037 99.4754L148.059 54.9394L146.418 56.0814L177.395 100.617L179.037 99.4754ZM147.238 54.5104H139.831V56.5104H147.238V54.5104Z" fill="black"/>
<rect x="98.5665" y="123.461" width="82.5286" height="9.22081" rx="4.61041" fill="#333333" stroke="black" stroke-width="2"/>
<rect x="91.1581" y="204.951" width="97.3452" height="12.9595" fill="#333333" stroke="black" stroke-width="2"/>
<rect x="78.1268" y="219.911" width="123.408" height="13.707" fill="#333333" stroke="black" stroke-width="2"/>
<rect x="69.8196" y="235.617" width="140.022" height="13.707" fill="#333333" stroke="black" stroke-width="2"/>
</svg>
