<svg width="280" height="280" viewBox="0 0 280 280" fill="none" xmlns="http://www.w3.org/2000/svg">
<rect x="98.7357" y="109.953" width="82.5286" height="3.36703" rx="1.68352" fill="#333333" stroke="black" stroke-width="2"/>
<path d="M102.394 194.539V190.516C111.907 179.559 117.666 165.253 117.666 149.604C117.666 136.827 113.826 124.944 107.239 115.049H172.761C166.174 124.944 162.334 136.827 162.334 149.604C162.334 165.253 168.093 179.559 177.606 190.516V194.539H102.394Z" fill="#333333" stroke="black" stroke-width="2"/>
<rect x="98.7357" y="115.049" width="82.5286" height="9.22081" rx="4.61041" fill="#333333" stroke="black" stroke-width="2"/>
<rect x="91.3273" y="196.539" width="97.3452" height="12.9595" fill="#333333" stroke="black" stroke-width="2"/>
<rect x="78.296" y="211.498" width="123.408" height="13.707" fill="#333333" stroke="black" stroke-width="2"/>
<rect x="69.9889" y="227.205" width="140.022" height="13.707" fill="#333333" stroke="black" stroke-width="2"/>
<mask id="path-7-inside-1_2_2201" fill="white">
<path fill-rule="evenodd" clip-rule="evenodd" d="M149.491 59.8502C151.846 57.4933 153.303 54.2382 153.303 50.6428C153.303 43.4492 147.471 37.6176 140.277 37.6176C133.084 37.6176 127.252 43.4492 127.252 50.6428C127.252 54.2382 128.709 57.4933 131.064 59.8502L118.405 74.8502L140.277 88.9813L162.15 74.8502L149.491 59.8502Z"/>
</mask>
<path fill-rule="evenodd" clip-rule="evenodd" d="M149.491 59.8502C151.846 57.4933 153.303 54.2382 153.303 50.6428C153.303 43.4492 147.471 37.6176 140.277 37.6176C133.084 37.6176 127.252 43.4492 127.252 50.6428C127.252 54.2382 128.709 57.4933 131.064 59.8502L118.405 74.8502L140.277 88.9813L162.15 74.8502L149.491 59.8502Z" fill="#333333"/>
<path d="M149.491 59.8502L148.076 58.4364L146.777 59.736L147.962 61.1401L149.491 59.8502ZM131.064 59.8502L132.593 61.1401L133.778 59.736L132.479 58.4364L131.064 59.8502ZM118.405 74.8502L116.876 73.5602L115.411 75.2969L117.32 76.5301L118.405 74.8502ZM140.277 88.9813L139.192 90.6612L140.277 91.3624L141.363 90.6612L140.277 88.9813ZM162.15 74.8502L163.235 76.5301L165.144 75.2969L163.679 73.5602L162.15 74.8502ZM151.303 50.6428C151.303 53.6867 150.072 56.4393 148.076 58.4364L150.905 61.264C153.62 58.5474 155.303 54.7897 155.303 50.6428H151.303ZM140.277 39.6176C146.367 39.6176 151.303 44.5537 151.303 50.6428H155.303C155.303 42.3446 148.576 35.6176 140.277 35.6176V39.6176ZM129.252 50.6428C129.252 44.5537 134.188 39.6176 140.277 39.6176V35.6176C131.979 35.6176 125.252 42.3446 125.252 50.6428H129.252ZM132.479 58.4364C130.483 56.4393 129.252 53.6867 129.252 50.6428H125.252C125.252 54.7897 126.935 58.5474 129.65 61.264L132.479 58.4364ZM129.536 58.5603L116.876 73.5602L119.933 76.1401L132.593 61.1401L129.536 58.5603ZM117.32 76.5301L139.192 90.6612L141.363 87.3014L119.49 73.1703L117.32 76.5301ZM141.363 90.6612L163.235 76.5301L161.065 73.1703L139.192 87.3014L141.363 90.6612ZM163.679 73.5602L151.019 58.5603L147.962 61.1401L160.622 76.1401L163.679 73.5602Z" fill="black" mask="url(#path-7-inside-1_2_2201)"/>
<path d="M105.022 111.636C102.587 104.941 95.3277 89.5589 85.7663 81.5911C76.205 73.6233 84.3277 71.7421 89.5842 71.7974C92.3437 72.3771 99.1186 74.342 104.142 77.5639C107.34 79.6149 107.155 76.6451 106.931 73.0452C106.715 69.5768 106.463 65.5234 109.165 64.8123C114.625 63.3755 118.945 67.1625 126.646 73.9132L126.843 74.0862C130.875 77.6197 131.904 74.3049 133.16 70.2602C134.343 66.4538 135.726 62.001 140 62.001C144.274 62.001 145.657 66.4538 146.84 70.2602C148.096 74.3049 149.125 77.6197 153.156 74.0862L153.354 73.9132C161.055 67.1625 165.375 63.3755 170.835 64.8123C173.537 65.5234 173.285 69.5768 173.069 73.0452C172.845 76.6451 172.66 79.6149 175.858 77.5639C180.881 74.342 187.656 72.3771 190.416 71.7974C195.672 71.7421 203.795 73.6233 194.234 81.5911C184.672 89.5589 177.413 104.941 174.978 111.636H105.022Z" fill="#333333" stroke="black" stroke-width="2"/>
</svg>
