<svg width="143" height="222" viewBox="0 0 143 222" fill="none" xmlns="http://www.w3.org/2000/svg">
<path d="M120.93 61.2523C120.93 69.6989 115.527 80.3806 106.592 88.9926C97.6828 97.5794 85.4199 103.951 71.9304 103.951C58.4409 103.951 46.178 97.5794 37.269 88.9926C28.334 80.3806 22.9304 69.6989 22.9304 61.2523C22.9304 52.8967 28.2372 45.1905 37.1132 39.524C45.9777 33.8649 58.2847 30.3319 71.9304 30.3319C85.5761 30.3319 97.8831 33.8649 106.748 39.524C115.624 45.1905 120.93 52.8967 120.93 61.2523Z" fill="white" stroke="black" stroke-width="2"/>
<path d="M68.1114 14.4327H69.1114V13.4327V1.40649H74.0946V13.4327V14.4327H75.0946H87.1209V19.4159H75.0946H74.0946V20.4159V32.4423H69.1114V20.4159V19.4159H68.1114H56.0851V14.4327H68.1114Z" fill="white" stroke="black" stroke-width="2"/>
<rect x="30.3388" y="89.6343" width="82.5286" height="3.36703" rx="1.68352" fill="white" stroke="black" stroke-width="2"/>
<path d="M33.9974 174.22V170.197C43.5099 159.241 49.2687 144.934 49.2687 129.286C49.2687 116.508 45.4294 104.625 38.8416 94.7302H104.364C97.7767 104.625 93.9374 116.508 93.9374 129.286C93.9374 144.934 99.6962 159.241 109.209 170.197V174.22H33.9974Z" fill="white" stroke="black" stroke-width="2"/>
<rect x="30.3388" y="94.7302" width="82.5286" height="9.22081" rx="4.61041" fill="white" stroke="black" stroke-width="2"/>
<rect x="22.9304" y="176.22" width="97.3452" height="12.9595" fill="white" stroke="black" stroke-width="2"/>
<rect x="9.89909" y="191.18" width="123.408" height="13.707" fill="white" stroke="black" stroke-width="2"/>
<rect x="1.59196" y="206.886" width="140.022" height="13.707" fill="white" stroke="black" stroke-width="2"/>
<circle cx="71.8917" cy="16.7923" r="6.73348" fill="white" stroke="black" stroke-width="2"/>
</svg>
