<svg width="186" height="210" viewBox="0 0 186 210" fill="none" xmlns="http://www.w3.org/2000/svg">
<path d="M80.2874 1.55334C73.5248 1.55334 75.0715 15.3424 76.6903 22.2369C74.8636 27.4398 68.7991 29.7418 65.2751 32.4115C61.7511 35.0813 64.8479 39.0325 58.5474 42.1293C52.2468 45.2262 45.5191 50.886 33.452 60.4971C21.3848 70.1081 14.1231 73.5253 6.43433 74.4864C0.283284 75.2553 0.596532 79.9327 1.52204 82.1752L19.8898 102.679H28.1125C28.6465 99.6887 32.2773 94.1356 40.6068 92.9609C48.9364 91.7863 67.9448 96.1646 79.5848 90.1844C88.8968 85.4003 95.0692 75.7323 96.9914 71.4963L93.9503 80.3841C86.2621 101.527 53.7072 112.418 38.3908 115.221C32.8649 126.634 47.1894 149.756 55.0424 159.891V163.48H136.223V160.187C147.59 148.82 154.061 124.627 155.876 113.952C156.287 124.504 148.937 145.796 145.21 155.123L170.563 163.597C185.651 140.562 192.411 101.921 172.485 63.0771C156.502 31.9192 124.032 22.1698 109.795 21.1898L109.064 25.2944C97.8414 5.86989 85.2035 1.37348 80.2874 1.55334Z" fill="white" stroke="black" stroke-width="2"/>
<rect x="45.4594" y="164.078" width="97.3452" height="12.9595" fill="white" stroke="black" stroke-width="2"/>
<rect x="32.4281" y="179.038" width="123.408" height="13.707" fill="white" stroke="black" stroke-width="2"/>
<rect x="24.121" y="194.745" width="140.022" height="13.707" fill="white" stroke="black" stroke-width="2"/>
</svg>
