<svg width="144" height="171" viewBox="0 0 144 171" fill="none" xmlns="http://www.w3.org/2000/svg">
<path d="M100.748 27.1788C100.748 41.2126 87.9852 52.7747 72 52.7747C56.0148 52.7747 43.2523 41.2126 43.2523 27.1788C43.2523 13.145 56.0148 1.58298 72 1.58298C87.9852 1.58298 100.748 13.145 100.748 27.1788Z" fill="white" stroke="black" stroke-width="2"/>
<path d="M34.3944 123.044V119.021C43.9069 108.064 49.6657 93.758 49.6657 78.1091C49.6657 65.332 45.8264 53.4488 39.2386 43.5538H104.761C98.1737 53.4488 94.3344 65.332 94.3344 78.1091C94.3344 93.758 100.093 108.064 109.606 119.021V123.044H34.3944Z" fill="white" stroke="black" stroke-width="2"/>
<rect x="30.7357" y="43.5538" width="82.5286" height="9.22081" rx="4.61041" fill="white" stroke="black" stroke-width="2"/>
<rect x="23.3273" y="125.044" width="97.3452" height="12.9595" fill="white" stroke="black" stroke-width="2"/>
<rect x="10.296" y="140.003" width="123.408" height="13.707" fill="white" stroke="black" stroke-width="2"/>
<rect x="1.98889" y="155.71" width="140.022" height="13.707" fill="white" stroke="black" stroke-width="2"/>
</svg>
