<svg width="143" height="163" viewBox="0 0 143 163" fill="none" xmlns="http://www.w3.org/2000/svg">
<path d="M32.3097 46.3422C33.5743 46.8733 36.1033 48.334 36.1033 49.9275C36.1033 51.5211 30.0336 96.538 26.9987 118.847C26.4929 120.308 25.0261 123.349 23.2052 123.827C21.3843 124.305 54.8183 124.026 71.7629 123.827C88.7075 124.026 122.141 124.305 120.321 123.827C118.5 123.349 117.033 120.308 116.527 118.847C113.492 96.538 107.422 51.5211 107.422 49.9275C107.422 48.334 109.951 46.8733 111.216 46.3422H71.7629H32.3097Z" fill="white" stroke="black" stroke-width="2"/>
<rect x="17.5666" y="36.1213" width="108.393" height="9.22081" rx="4.61041" fill="white" stroke="black" stroke-width="2"/>
<rect x="23.0901" y="117.611" width="97.3452" height="12.9595" fill="white" stroke="black" stroke-width="2"/>
<rect x="10.0589" y="132.571" width="123.408" height="13.707" fill="white" stroke="black" stroke-width="2"/>
<rect x="1.75177" y="148.278" width="140.022" height="13.707" fill="white" stroke="black" stroke-width="2"/>
<path d="M125.87 1.54126L123.34 36.616L109.13 35.485H20.9587L15.9464 1.76561H41.4637L42.8307 27.3589H59.3866V1.76561H83.6888V27.3589H109.13L108.894 1.81443L125.87 1.54126Z" fill="#F1F1F1"/>
<path d="M120.794 21.7708L122.005 1.81323H125.69L124.373 21.7708H124.399L124.023 27.0718L123.847 29.7434H123.834L123.341 36.7054H20.1491L15.7872 1.89807H35.0577L36.6234 21.7708H47.9448L46.2586 1.89807H72.7556V21.7708H89.015V1.89807H112.742V21.7708H120.794Z" fill="white" stroke="black" stroke-width="2"/>
</svg>
